<svg width="32" height="32" viewBox="0 0 32 32" fill="none" xmlns="http://www.w3.org/2000/svg">
<path d="M27.3134 4.6862C24.2915 1.6643 20.2734 0 15.9999 0C11.7262 0 7.70825 1.66422 4.68628 4.6862C1.6643 7.70825 0 11.7262 0 15.9999C0 20.2736 1.6643 24.2917 4.68636 27.3136C7.70833 30.3356 11.7262 31.9998 16 31.9998C20.2736 31.9998 24.2915 30.3356 27.3136 27.3136C30.3356 24.2917 32 20.2737 32 15.9999C31.9998 11.7262 30.3354 7.70825 27.3134 4.6862ZM26.285 5.71473C29.0323 8.46204 30.5453 12.1147 30.5453 15.9999H27.2484C27.2484 9.79744 22.2024 4.75142 16 4.75142C15.632 4.75142 15.2681 4.76977 14.9091 4.80446V1.4946C15.2703 1.468 15.6341 1.45454 16 1.45454C19.8851 1.45454 23.5376 2.96749 26.285 5.71473ZM15.9999 25.7938C10.5996 25.7938 6.20604 21.4003 6.20604 16C6.20604 10.5996 10.5996 6.20604 15.9999 6.20604C21.4002 6.20604 25.7938 10.5995 25.7938 15.9999C25.7938 21.4002 21.4002 25.7938 15.9999 25.7938Z" fill="white"/>
</svg>
