<svg width="124" height="36" viewBox="0 0 124 36" fill="none" xmlns="http://www.w3.org/2000/svg">
<path d="M50.0217 28.256C48.1785 28.256 46.7705 27.6074 45.7977 26.3104V27.4112C45.7977 27.5818 45.738 27.7269 45.6185 27.8464C45.5161 27.9488 45.3796 28 45.2089 28H44.1337C43.9631 28 43.818 27.9488 43.6985 27.8464C43.5961 27.7269 43.5449 27.5818 43.5449 27.4112V10.4128C43.5449 10.225 43.5961 10.08 43.6985 9.97757C43.818 9.87517 43.9631 9.82397 44.1337 9.82397H45.2857C45.4564 9.82397 45.5929 9.88371 45.6953 10.0032C45.8148 10.1056 45.8745 10.2421 45.8745 10.4128V16.3264C46.8303 15.0634 48.2127 14.432 50.0217 14.432C51.8137 14.432 53.1535 15.0208 54.0409 16.1984C54.9455 17.3589 55.4233 18.8181 55.4745 20.576C55.4916 20.7637 55.5001 21.0197 55.5001 21.344C55.5001 21.6682 55.4916 21.9242 55.4745 22.112C55.4233 23.8698 54.9455 25.3376 54.0409 26.5152C53.1535 27.6757 51.8137 28.256 50.0217 28.256ZM49.5353 26.2592C50.7641 26.2592 51.6601 25.8752 52.2233 25.1072C52.7865 24.3392 53.0937 23.3322 53.1449 22.0864C53.162 21.9157 53.1705 21.6682 53.1705 21.344C53.1705 18.0672 51.9588 16.4288 49.5353 16.4288C48.3748 16.4288 47.4788 16.8128 46.8473 17.5808C46.2329 18.3317 45.9087 19.2277 45.8745 20.2688C45.8575 20.4565 45.8489 20.7893 45.8489 21.2672C45.8489 21.728 45.8575 22.0522 45.8745 22.24C45.9087 23.3322 46.2244 24.2794 46.8217 25.0816C47.4361 25.8666 48.3407 26.2592 49.5353 26.2592ZM64.1209 28.256C62.2436 28.256 60.7929 27.7269 59.7689 26.6688C58.762 25.6106 58.2244 24.2026 58.1561 22.4448L58.1305 21.344L58.1561 20.2432C58.2244 18.4853 58.7705 17.0773 59.7945 16.0192C60.8356 14.961 62.2777 14.432 64.1209 14.432C65.9641 14.432 67.3977 14.961 68.4217 16.0192C69.4628 17.0773 70.0175 18.4853 70.0857 20.2432C70.1199 20.6186 70.1369 20.9856 70.1369 21.344C70.1369 21.7024 70.1199 22.0693 70.0857 22.4448C70.0175 24.2026 69.4713 25.6106 68.4473 26.6688C67.4404 27.7269 65.9983 28.256 64.1209 28.256ZM64.1209 26.336C65.2132 26.336 66.0751 25.9946 66.7065 25.312C67.3551 24.6122 67.7049 23.6138 67.7561 22.3168C67.7732 22.1461 67.7817 21.8218 67.7817 21.344C67.7817 20.8661 67.7732 20.5418 67.7561 20.3712C67.7049 19.0741 67.3551 18.0842 66.7065 17.4016C66.0751 16.7018 65.2132 16.352 64.1209 16.352C63.0287 16.352 62.1583 16.7018 61.5097 17.4016C60.8783 18.0842 60.5369 19.0741 60.4857 20.3712L60.4601 21.344L60.4857 22.3168C60.5369 23.6138 60.8783 24.6122 61.5097 25.312C62.1583 25.9946 63.0287 26.336 64.1209 26.336ZM78.7709 28.256C76.8936 28.256 75.4429 27.7269 74.4189 26.6688C73.412 25.6106 72.8744 24.2026 72.8061 22.4448L72.7805 21.344L72.8061 20.2432C72.8744 18.4853 73.4205 17.0773 74.4445 16.0192C75.4856 14.961 76.9277 14.432 78.7709 14.432C80.6145 14.432 82.0481 14.961 83.0721 16.0192C84.1129 17.0773 84.6673 18.4853 84.7361 20.2432C84.7697 20.6186 84.7873 20.9856 84.7873 21.344C84.7873 21.7024 84.7697 22.0693 84.7361 22.4448C84.6673 24.2026 84.1217 25.6106 83.0977 26.6688C82.0905 27.7269 80.6481 28.256 78.7709 28.256ZM78.7709 26.336C79.8632 26.336 80.7249 25.9946 81.3569 25.312C82.0049 24.6122 82.3553 23.6138 82.4065 22.3168C82.4233 22.1461 82.4321 21.8218 82.4321 21.344C82.4321 20.8661 82.4233 20.5418 82.4065 20.3712C82.3553 19.0741 82.0049 18.0842 81.3569 17.4016C80.7249 16.7018 79.8632 16.352 78.7709 16.352C77.6787 16.352 76.8083 16.7018 76.1597 17.4016C75.5283 18.0842 75.1869 19.0741 75.1357 20.3712L75.1101 21.344L75.1357 22.3168C75.1869 23.6138 75.5283 24.6122 76.1597 25.312C76.8083 25.9946 77.6787 26.336 78.7709 26.336ZM88.6337 28C88.4633 28 88.3177 27.9488 88.1985 27.8464C88.0961 27.7269 88.0449 27.5818 88.0449 27.4112V10.4128C88.0449 10.225 88.0961 10.08 88.1985 9.97757C88.3177 9.87517 88.4633 9.82397 88.6337 9.82397H89.7345C89.9049 9.82397 90.0417 9.88371 90.1441 10.0032C90.2633 10.1056 90.3233 10.2421 90.3233 10.4128V19.3472L95.4433 15.1232C95.6993 14.9354 95.8785 14.816 95.9809 14.7648C96.0833 14.7136 96.2457 14.688 96.4673 14.688H97.7473C97.9009 14.688 98.0201 14.7392 98.1057 14.8416C98.2081 14.9269 98.2593 15.0549 98.2593 15.2256C98.2593 15.3792 98.1657 15.5413 97.9777 15.712L91.9873 20.6272L98.6177 26.976C98.8057 27.1637 98.8993 27.3258 98.8993 27.4624C98.8993 27.616 98.8481 27.744 98.7457 27.8464C98.6601 27.9488 98.5409 28 98.3873 28H97.1329C96.8769 28 96.6889 27.9744 96.5697 27.9232C96.4673 27.872 96.3137 27.7525 96.1089 27.5648L90.3233 22.0864V27.4112C90.3233 27.5818 90.2633 27.7269 90.1441 27.8464C90.0417 27.9488 89.9049 28 89.7345 28H88.6337ZM101.759 28C101.588 28 101.443 27.9488 101.323 27.8464C101.221 27.7269 101.17 27.5818 101.17 27.4112V10.4128C101.17 10.225 101.221 10.08 101.323 9.97757C101.443 9.87517 101.588 9.82397 101.759 9.82397H102.885C103.056 9.82397 103.192 9.88371 103.295 10.0032C103.415 10.1056 103.474 10.2421 103.474 10.4128V27.4112C103.474 27.5818 103.415 27.7269 103.295 27.8464C103.192 27.9488 103.056 28 102.885 28H101.759ZM109.649 32.864C109.495 32.864 109.367 32.8128 109.265 32.7104C109.163 32.608 109.111 32.4885 109.111 32.352C109.111 32.3008 109.154 32.1472 109.239 31.8912L111.236 27.2064L106.347 15.6608C106.244 15.456 106.193 15.3109 106.193 15.2256C106.21 15.072 106.27 14.944 106.372 14.8416C106.475 14.7392 106.594 14.688 106.731 14.688H107.908C108.181 14.688 108.386 14.8245 108.523 15.0976L112.465 24.5184L116.51 15.0976C116.647 14.8245 116.851 14.688 117.124 14.688H118.276C118.413 14.688 118.532 14.7392 118.635 14.8416C118.737 14.944 118.788 15.0634 118.788 15.2C118.788 15.3194 118.746 15.473 118.66 15.6608L111.415 32.4544C111.33 32.5909 111.236 32.6933 111.134 32.7616C111.048 32.8298 110.929 32.864 110.775 32.864H109.649Z" fill="white"/>
<path d="M0 6.54944L13.8857 10.1404V32.5838L0 28.8433V6.54944Z" fill="url(#paint0_linear)"/>
<path d="M15.0605 10.0657L28.7993 6.3999V28.8433L15.0605 32.6587V10.0657Z" fill="url(#paint1_linear)"/>
<path d="M43.1875 29V8.20312H45.625V16.4531C46 15.901 46.5469 15.4375 47.2656 15.0625C47.9948 14.6875 48.7812 14.5 49.625 14.5C50.6354 14.5 51.5469 14.6979 52.3594 15.0938C53.1823 15.4896 53.8542 16.026 54.375 16.7031C54.9062 17.3802 55.3125 18.1615 55.5938 19.0469C55.875 19.9323 56.0156 20.8802 56.0156 21.8906C56.0156 23.2552 55.776 24.4896 55.2969 25.5938C54.8177 26.6979 54.0885 27.5885 53.1094 28.2656C52.1302 28.9427 50.9688 29.2812 49.625 29.2812C48.7812 29.2812 47.9948 29.0938 47.2656 28.7188C46.5469 28.3438 46 27.8854 45.625 27.3438V29H43.1875ZM45.625 24.7812C45.9896 25.5104 46.4948 26.0833 47.1406 26.5C47.7969 26.9062 48.5052 27.1094 49.2656 27.1094C50.599 27.1094 51.651 26.625 52.4219 25.6562C53.2031 24.6875 53.5938 23.4323 53.5938 21.8906C53.5938 20.349 53.2031 19.099 52.4219 18.1406C51.651 17.1719 50.599 16.6875 49.2656 16.6875C48.5052 16.6875 47.7969 16.8958 47.1406 17.3125C46.4948 17.7188 45.9896 18.2865 45.625 19.0156V24.7812ZM60.125 27.2344C58.9271 25.8594 58.3281 24.0781 58.3281 21.8906C58.3281 19.7031 58.9271 17.9271 60.125 16.5625C61.3229 15.1875 62.8958 14.5 64.8438 14.5C66.7812 14.5 68.3542 15.1875 69.5625 16.5625C70.7708 17.9271 71.375 19.7031 71.375 21.8906C71.375 24.0781 70.7708 25.8594 69.5625 27.2344C68.3542 28.599 66.7812 29.2812 64.8438 29.2812C62.8958 29.2812 61.3229 28.599 60.125 27.2344ZM61.8438 18.0625C61.1146 19.0312 60.75 20.3073 60.75 21.8906C60.75 23.474 61.1146 24.75 61.8438 25.7188C62.5833 26.6875 63.5833 27.1719 64.8438 27.1719C66.1042 27.1719 67.1042 26.6875 67.8438 25.7188C68.5833 24.7396 68.9531 23.4635 68.9531 21.8906C68.9531 20.3177 68.5833 19.0469 67.8438 18.0781C67.1042 17.099 66.1042 16.6094 64.8438 16.6094C63.5833 16.6094 62.5833 17.0938 61.8438 18.0625ZM75.4688 27.2344C74.2708 25.8594 73.6719 24.0781 73.6719 21.8906C73.6719 19.7031 74.2708 17.9271 75.4688 16.5625C76.6667 15.1875 78.2396 14.5 80.1875 14.5C82.125 14.5 83.6979 15.1875 84.9062 16.5625C86.1146 17.9271 86.7188 19.7031 86.7188 21.8906C86.7188 24.0781 86.1146 25.8594 84.9062 27.2344C83.6979 28.599 82.125 29.2812 80.1875 29.2812C78.2396 29.2812 76.6667 28.599 75.4688 27.2344ZM77.1875 18.0625C76.4583 19.0312 76.0938 20.3073 76.0938 21.8906C76.0938 23.474 76.4583 24.75 77.1875 25.7188C77.9271 26.6875 78.9271 27.1719 80.1875 27.1719C81.4479 27.1719 82.4479 26.6875 83.1875 25.7188C83.9271 24.7396 84.2969 23.4635 84.2969 21.8906C84.2969 20.3177 83.9271 19.0469 83.1875 18.0781C82.4479 17.099 81.4479 16.6094 80.1875 16.6094C78.9271 16.6094 77.9271 17.0938 77.1875 18.0625ZM89.9688 29V8.20312H92.375V21.0938L98.875 14.7969H102.031L95.6406 20.9375L102.266 29H99.3125L93.9062 22.4375L92.375 23.9062V29H89.9688ZM104.812 29V8.20312H107.219V29H104.812ZM109.938 14.7969H112.531L116.719 25.9844L120.844 14.7969H123.344L115.703 34.4375H113.328L115.469 29.0938L109.938 14.7969Z" fill="#3B444F"/>
<path d="M0 6.54944L13.8857 10.1404V32.5838L0 28.8433V6.54944Z" fill="url(#paint2_linear)"/>
<path d="M15.0605 10.0657L28.7993 6.3999V28.8433L15.0605 32.6587V10.0657Z" fill="url(#paint3_linear)"/>
<defs>
<linearGradient id="paint0_linear" x1="6.94286" y1="6.54944" x2="6.94286" y2="32.5838" gradientUnits="userSpaceOnUse">
<stop stop-color="#83EAF1"/>
<stop offset="0.0001" stop-color="white"/>
<stop offset="1" stop-color="#FAFCFE"/>
</linearGradient>
<linearGradient id="paint1_linear" x1="21.93" y1="6.3999" x2="21.93" y2="32.6587" gradientUnits="userSpaceOnUse">
<stop stop-color="#83EAF1"/>
<stop offset="0.0001" stop-color="white"/>
<stop offset="1" stop-color="#FAFCFE"/>
</linearGradient>
<linearGradient id="paint2_linear" x1="6.94286" y1="6.54944" x2="6.94286" y2="32.5838" gradientUnits="userSpaceOnUse">
<stop stop-color="#09C6F9"/>
<stop offset="0.0001" stop-color="#09C6F9"/>
<stop offset="1" stop-color="#045DE9"/>
</linearGradient>
<linearGradient id="paint3_linear" x1="21.93" y1="6.3999" x2="21.93" y2="32.6587" gradientUnits="userSpaceOnUse">
<stop stop-color="#09C6F9"/>
<stop offset="0.0001" stop-color="#09C6F9"/>
<stop offset="1" stop-color="#045DE9"/>
</linearGradient>
</defs>
</svg>
