<svg width="20" height="20" viewBox="0 0 20 20" fill="none" xmlns="http://www.w3.org/2000/svg">
<path d="M9.99902 0.000488281C4.47902 0.000488281 -0.000976562 4.48049 -0.000976562 10.0005C-0.000976562 15.5205 4.47902 20.0005 9.99902 20.0005C15.519 20.0005 19.999 15.5205 19.999 10.0005C19.999 4.48049 15.519 0.000488281 9.99902 0.000488281ZM9.99902 18.0005C5.58902 18.0005 1.99902 14.4105 1.99902 10.0005C1.99902 5.59049 5.58902 2.00049 9.99902 2.00049C14.409 2.00049 17.999 5.59049 17.999 10.0005C17.999 14.4105 14.409 18.0005 9.99902 18.0005Z" fill="white"/>
<path d="M14.59 5.58008L8 12.1701L5.41 9.59008L4 11.0001L8 15.0001L16 7.00008L14.59 5.58008Z" fill="white"/>
</svg>
