<svg width="135" height="40" viewBox="0 0 135 40" fill="none" xmlns="http://www.w3.org/2000/svg">
<rect width="135" height="40" rx="5" fill="black"/>
<path fill-rule="evenodd" clip-rule="evenodd" d="M5 0H130C132.762 0 135 2.23853 135 5V35C135 37.7615 132.762 40 130 40H5C2.23828 40 0 37.7615 0 35V5C0 2.23853 2.23828 0 5 0ZM134.2 5C134.2 2.68042 132.319 0.800049 130 0.800049H5C2.68066 0.800049 0.799805 2.68042 0.799805 5V35C0.799805 37.3196 2.68066 39.2 5 39.2H130C132.319 39.2 134.2 37.3196 134.2 35V5Z" fill="#A6A6A6"/>
<path fill-rule="evenodd" clip-rule="evenodd" d="M47.7402 23.06V24.86H52.0605C52.0303 25.2321 51.9463 25.5951 51.8115 25.9379C51.7412 26.1178 51.6562 26.2921 51.5586 26.4594C51.4189 26.6991 51.252 26.9242 51.0605 27.13C50.1865 28.0202 48.9766 28.4997 47.7305 28.4501C45.0791 28.4501 42.9297 26.3009 42.9297 23.65C42.9297 20.9992 45.0791 18.85 47.7305 18.85C48.9482 18.8302 50.124 19.2941 51 20.14L52.2705 18.87C51.0752 17.6598 49.4404 16.9852 47.7402 17.0001C45.3193 16.9059 43.04 18.1437 41.8018 20.226C40.5635 22.3085 40.5635 24.9015 41.8018 26.984C43.04 29.0663 45.3193 30.3043 47.7402 30.2101C49.4717 30.2882 51.1533 29.6137 52.3496 28.36C53.3975 27.2089 53.957 25.6957 53.9102 24.14C53.9131 23.7611 53.8799 23.3827 53.8105 23.0101L47.7402 23.06ZM58.8301 21.7499C56.4844 21.7555 54.5859 23.6608 54.5898 26.0065C54.5938 28.3524 56.4971 30.2518 58.8428 30.2499C61.1895 30.2482 63.0898 28.3458 63.0898 25.9999C63.0996 25.3231 62.9453 24.6613 62.6494 24.0673C62.4482 23.6647 62.1816 23.2931 61.8564 22.9694C61.0508 22.1684 59.9551 21.7282 58.8203 21.7499H58.8301ZM63.9102 26.0133C63.9023 23.6686 65.7959 21.7609 68.1406 21.7499C69.2754 21.7282 70.3711 22.1684 71.1768 22.9694C71.9814 23.7706 72.4268 24.8644 72.4102 25.9999C72.4102 28.3446 70.5117 30.2462 68.167 30.2499C65.8223 30.2536 63.918 28.3578 63.9102 26.0133ZM65.6318 27.1183C66.0889 28.0744 67.083 28.6539 68.1396 28.58L68.21 28.5773L68.3018 28.5707L68.3926 28.5609L68.4961 28.5455C68.7422 28.5038 68.9795 28.4249 69.1992 28.3126C69.4531 28.1832 69.6855 28.0092 69.8838 27.796C70.3359 27.3104 70.5723 26.6627 70.54 25.9999C70.5371 24.9406 69.8877 23.9906 68.9014 23.6041C67.915 23.2177 66.792 23.4733 66.0713 24.2489C65.3496 25.0246 65.1758 26.1625 65.6318 27.1183ZM56.3154 27.1261C56.7744 28.0814 57.7725 28.6581 58.8301 28.58H58.8193C59.1572 28.5722 59.4863 28.495 59.7871 28.3571C60.0771 28.224 60.3418 28.0346 60.5635 27.7963C60.7197 27.6281 60.8506 27.4406 60.9531 27.2396C61.0713 27.0092 61.1523 26.7611 61.1924 26.5048C61.2188 26.339 61.2285 26.1701 61.2197 25.9999C61.2168 24.9398 60.5654 23.9894 59.5781 23.6037C58.5908 23.2182 57.4678 23.476 56.7471 24.2538C56.0264 25.0314 55.8555 26.1708 56.3154 27.1261ZM89.4102 21.7501C91.0684 21.8112 92.5166 22.8893 93.0498 24.4601L93.2598 24.9101L87.5703 27.2601C87.9268 28.0724 88.7441 28.5839 89.6299 28.5502C90.4863 28.5524 91.2803 28.1041 91.7197 27.3703L93.1699 28.3703C92.3809 29.5517 91.0508 30.2577 89.6299 30.2501C88.501 30.2667 87.4131 29.8234 86.6172 29.0216C85.8213 28.2201 85.3857 27.1295 85.4102 26.0001C85.3408 24.8966 85.7314 23.8139 86.4893 23.0087C87.2471 22.2035 88.3047 21.7479 89.4102 21.7501ZM87.25 25.88C87.209 25.255 87.4219 24.64 87.8389 24.1735C88.0957 23.8869 88.417 23.671 88.7715 23.5407C88.9932 23.4589 89.2285 23.4108 89.4697 23.4C90.1299 23.3566 90.751 23.7106 91.0498 24.2999L87.25 25.88ZM84.5 30.0001H82.6299V17.5001H84.5V30.0001ZM79.5693 22.7001H79.5C78.9297 22.0629 78.1152 21.6989 77.2598 21.7001C74.9902 21.8102 73.2061 23.6825 73.2061 25.955C73.2061 28.2277 74.9902 30.1 77.2598 30.2101C78.1172 30.2245 78.9375 29.8583 79.5 29.2101H79.5596V29.8202C79.5596 31.4501 78.6895 32.3202 77.29 32.3202C76.3359 32.2977 75.4902 31.7011 75.1494 30.8102L73.5195 31.4901C74.1475 33.017 75.6387 34.0099 77.29 34.0001C79.4795 34.0001 81.29 32.7101 81.29 29.5702V22.0001H79.5693V22.7001ZM75.0674 26.0001C75.0674 27.3424 76.0928 28.4623 77.4199 28.58C77.6191 28.5724 77.8145 28.5399 78.002 28.4845C78.4277 28.3593 78.8135 28.1161 79.1123 27.7777C79.543 27.2904 79.7549 26.6481 79.7002 26.0001C79.749 25.3549 79.5361 24.7172 79.1084 24.2316C78.6816 23.7457 78.0762 23.4533 77.4297 23.4201C76.0928 23.538 75.0674 24.6579 75.0674 26.0001ZM101.81 17.4999H97.3398V29.9999H99.21V25.2599H101.82C103.272 25.3644 104.662 24.6483 105.42 23.4049C106.178 22.1613 106.178 20.5985 105.42 19.3549C104.662 18.1115 103.272 17.3956 101.82 17.4999H101.81ZM99.2002 23.5001H101.811L101.851 23.5302C103.035 23.5302 103.995 22.5697 103.995 21.3851C103.995 20.2006 103.035 19.2401 101.851 19.2401H99.2002V23.5001ZM113.34 21.7001C111.949 21.6168 110.641 22.3671 110.011 23.61L111.67 24.2999C112.005 23.6837 112.672 23.3229 113.37 23.38C113.485 23.3666 113.601 23.3644 113.715 23.3729C113.807 23.38 113.897 23.3942 113.987 23.4149C114.141 23.4506 114.289 23.5062 114.428 23.5807C114.473 23.6044 114.516 23.6303 114.559 23.6579C114.591 23.6784 114.622 23.6998 114.652 23.7226L114.708 23.7658C114.752 23.8012 114.794 23.8383 114.834 23.8771C114.896 23.9372 114.953 24.0011 115.005 24.0687C115.117 24.2145 115.206 24.3764 115.269 24.549C115.32 24.6901 115.354 24.838 115.37 24.9901V25.12C114.77 24.8019 114.1 24.6371 113.42 24.64C111.63 24.64 109.82 25.64 109.82 27.4501C109.833 27.7287 109.886 28.0011 109.975 28.2599C110.136 28.7255 110.414 29.1469 110.789 29.4799C111.373 29.9977 112.142 30.2575 112.92 30.2001C113.88 30.2689 114.8 29.8087 115.32 28.9999H115.38V29.9999H117.181V25.1901C117.181 22.9999 115.521 21.7301 113.391 21.7301L113.34 21.7001ZM111.65 27.4901C111.65 28.2401 112.5 28.5502 113.11 28.5502L113.16 28.58C114.287 28.5526 115.221 27.6996 115.351 26.58C114.831 26.2904 114.244 26.1454 113.65 26.1601C112.71 26.1601 111.65 26.4901 111.65 27.4901ZM123.74 22.0001L121.601 27.4201H121.54L119.32 22.0001H117.32L120.65 29.5802L118.75 33.7902H120.7L125.82 22.0001H123.74ZM108.8 30.0001H106.93V17.5001H108.8V30.0001Z" fill="white"/>
<path fill-rule="evenodd" clip-rule="evenodd" d="M69.2097 7.77002C68.03 9.0188 68.03 10.9712 69.2097 12.22C70.4265 13.4302 72.3923 13.4302 73.6101 12.22C74.7947 10.9731 74.7947 9.01685 73.6101 7.77002C73.3123 7.47046 72.9607 7.23804 72.5769 7.08203C72.2097 6.93286 71.8142 6.854 71.4099 6.854C70.5837 6.854 69.7918 7.18384 69.2097 7.77002ZM46.6697 12.24C47.1834 11.7041 47.4539 10.9812 47.4197 10.24C47.4197 10.0889 47.407 9.93848 47.3796 9.78979H44.4695V10.5098H46.6404C46.6316 10.7676 46.5701 11.019 46.4627 11.2493C46.3816 11.4238 46.2732 11.5862 46.1404 11.73C45.4548 12.3923 44.4382 12.5776 43.5632 12.1992C42.6882 11.8208 42.1267 10.9531 42.1404 9.99976C42.1287 9.67432 42.1863 9.35376 42.3044 9.05737C42.3406 8.9668 42.3826 8.87842 42.4304 8.79297L42.4666 8.72949L42.4988 8.677C42.53 8.62744 42.5642 8.57886 42.5994 8.53149L42.6658 8.44653L42.7039 8.40063L42.7507 8.34863L42.7937 8.30371C43.2332 7.85107 43.8386 7.59668 44.4695 7.59985C45.0974 7.56567 45.7048 7.82861 46.1101 8.30981L46.6404 7.77979C46.3836 7.48535 46.0623 7.25586 45.7 7.10986C45.6472 7.0874 45.5935 7.06641 45.5398 7.04688L45.4216 7.00659C45.322 6.97485 45.2214 6.948 45.1189 6.92651C45.0105 6.90356 44.9002 6.88647 44.7898 6.87549C44.6834 6.86475 44.5769 6.85962 44.4695 6.85986C43.6404 6.84131 42.8406 7.16724 42.2595 7.75977C41.3669 8.65918 41.0994 10.0066 41.5818 11.1787C42.0642 12.3511 43.2019 13.1199 44.4695 13.1299C44.8572 13.1438 45.239 13.0801 45.5935 12.9473C45.9968 12.7964 46.365 12.5566 46.6697 12.24ZM49.2996 7.73999H51.9998V7H48.4998V13H51.9998V12.26H49.2996V10.3601H51.7595V9.63989H49.2996V7.73999ZM55.28 13H54.5095V7.73999H52.8298V7H56.9998V7.73999H55.28V13ZM59.9402 7V13H60.7097V7H59.9402ZM64.1296 13H63.3591V7.73999H61.6794V7H65.7996V7.73999H64.1296V13ZM73.0398 11.72C73.9255 10.7441 73.9255 9.25562 73.0398 8.27979C72.1384 7.38232 70.6814 7.38232 69.78 8.27979C68.8943 9.25562 68.8943 10.7441 69.78 11.72C70.6814 12.6174 72.1384 12.6174 73.0398 11.72ZM75.5798 7V13H76.3601V8.11011L79.4099 13H80.2097V7H79.4402V11.6699L76.5203 7H75.5798Z" fill="white"/>
<path d="M69.2097 12.22L69.137 12.2887L69.1392 12.2909L69.2097 12.22ZM69.2097 7.77002L69.1387 7.69954L69.137 7.70135L69.2097 7.77002ZM73.6101 12.22L73.6806 12.2909L73.6826 12.2888L73.6101 12.22ZM73.6101 7.77002L73.6826 7.70112L73.681 7.69951L73.6101 7.77002ZM72.5769 7.08203L72.6146 6.98939L72.6145 6.98938L72.5769 7.08203ZM47.4197 10.24H47.3196L47.3198 10.2446L47.4197 10.24ZM46.6697 12.24L46.7417 12.3093L46.7419 12.3092L46.6697 12.24ZM47.3796 9.78979L47.478 9.77171L47.4629 9.6898H47.3796V9.78979ZM44.4695 9.78979V9.6898H44.3695V9.78979H44.4695ZM44.4695 10.5098H44.3695V10.6098H44.4695V10.5098ZM46.6404 10.5098L46.7403 10.5132L46.7439 10.4098H46.6404V10.5098ZM46.4627 11.2493L46.372 11.207L46.372 11.2072L46.4627 11.2493ZM46.1404 11.73L46.21 11.802L46.2138 11.7978L46.1404 11.73ZM42.1404 9.99976L42.2405 10.0012L42.2403 9.99616L42.1404 9.99976ZM42.3044 9.05737L42.2116 9.02032L42.2116 9.02034L42.3044 9.05737ZM42.4304 8.79297L42.3435 8.7435L42.3432 8.74411L42.4304 8.79297ZM42.4666 8.72949L42.3813 8.67714L42.3797 8.68002L42.4666 8.72949ZM42.4988 8.677L42.4142 8.62366L42.4136 8.62468L42.4988 8.677ZM42.5994 8.53149L42.5206 8.46989L42.5191 8.47189L42.5994 8.53149ZM42.6658 8.44653L42.5888 8.38265L42.587 8.38495L42.6658 8.44653ZM42.7039 8.40063L42.6295 8.33362L42.6269 8.33678L42.7039 8.40063ZM42.7507 8.34863L42.6784 8.27948L42.6765 8.28168L42.7507 8.34863ZM42.7937 8.30371L42.722 8.23405L42.7214 8.23459L42.7937 8.30371ZM44.4695 7.59985L44.469 7.70003L44.4749 7.69971L44.4695 7.59985ZM46.1101 8.30981L46.0336 8.37423L46.1038 8.45753L46.1808 8.38054L46.1101 8.30981ZM46.6404 7.77979L46.7111 7.85051L46.7772 7.78446L46.7157 7.71405L46.6404 7.77979ZM45.7 7.10986L45.6608 7.20188L45.6626 7.20262L45.7 7.10986ZM45.5398 7.04688L45.574 6.95288L45.5721 6.95222L45.5398 7.04688ZM45.4216 7.00659L45.4539 6.91192L45.452 6.91131L45.4216 7.00659ZM45.1189 6.92651L45.0982 7.02435L45.0984 7.02439L45.1189 6.92651ZM44.7898 6.87549L44.7798 6.97498L44.7799 6.975L44.7898 6.87549ZM44.4695 6.85986L44.4672 6.95987L44.4697 6.95986L44.4695 6.85986ZM42.2595 7.75977L42.3305 7.83021L42.3309 7.82978L42.2595 7.75977ZM41.5818 11.1787L41.6743 11.1407L41.6743 11.1407L41.5818 11.1787ZM44.4695 13.1299L44.4731 13.0299L44.4703 13.0299L44.4695 13.1299ZM45.5935 12.9473L45.5585 12.8536L45.5584 12.8536L45.5935 12.9473ZM51.9998 7.73999V7.83999H52.0998V7.73999H51.9998ZM49.2996 7.73999V7.63999H49.1996V7.73999H49.2996ZM51.9998 7H52.0998V6.9H51.9998V7ZM48.4998 7V6.9H48.3998V7H48.4998ZM48.4998 13H48.3998V13.1H48.4998V13ZM51.9998 13V13.1H52.0998V13H51.9998ZM51.9998 12.26H52.0998V12.16H51.9998V12.26ZM49.2996 12.26H49.1996V12.36H49.2996V12.26ZM49.2996 10.3601V10.2601H49.1996V10.3601H49.2996ZM51.7595 10.3601V10.4601H51.8595V10.3601H51.7595ZM51.7595 9.63989H51.8595V9.53989H51.7595V9.63989ZM49.2996 9.63989H49.1996V9.73989H49.2996V9.63989ZM54.5095 13H54.4095V13.1H54.5095V13ZM55.28 13V13.1H55.38V13H55.28ZM54.5095 7.73999H54.6095V7.63999H54.5095V7.73999ZM52.8298 7.73999H52.7298V7.83999H52.8298V7.73999ZM52.8298 7V6.9H52.7298V7H52.8298ZM56.9998 7H57.0998V6.9H56.9998V7ZM56.9998 7.73999V7.83999H57.0998V7.73999H56.9998ZM55.28 7.73999V7.63999H55.18V7.73999H55.28ZM59.9402 13H59.8402V13.1H59.9402V13ZM59.9402 7V6.9H59.8402V7H59.9402ZM60.7097 13V13.1H60.8097V13H60.7097ZM60.7097 7H60.8097V6.9H60.7097V7ZM63.3591 13H63.2591V13.1H63.3591V13ZM64.1296 13V13.1H64.2296V13H64.1296ZM63.3591 7.73999H63.4591V7.63999H63.3591V7.73999ZM61.6794 7.73999H61.5794V7.83999H61.6794V7.73999ZM61.6794 7V6.9H61.5794V7H61.6794ZM65.7996 7H65.8996V6.9H65.7996V7ZM65.7996 7.73999V7.83999H65.8996V7.73999H65.7996ZM64.1296 7.73999V7.63999H64.0296V7.73999H64.1296ZM73.0398 8.27979L73.1139 8.21249L73.1104 8.20892L73.0398 8.27979ZM73.0398 11.72L73.1104 11.7909L73.1138 11.7872L73.0398 11.72ZM69.78 8.27979L69.7094 8.20883L69.706 8.21258L69.78 8.27979ZM69.78 11.72L69.7059 11.7873L69.7095 11.7908L69.78 11.72ZM75.5798 13H75.4798V13.1H75.5798V13ZM75.5798 7V6.9H75.4798V7H75.5798ZM76.3601 13V13.1H76.4601V13H76.3601ZM76.3601 8.11011L76.445 8.05719L76.2601 7.76081V8.11011H76.3601ZM79.4099 13L79.3251 13.0529L79.3544 13.1H79.4099V13ZM80.2097 13V13.1H80.3097V13H80.2097ZM80.2097 7H80.3097V6.9H80.2097V7ZM79.4402 7V6.9H79.3402V7H79.4402ZM79.4402 11.6699L79.3554 11.7229L79.5402 12.0185V11.6699H79.4402ZM76.5203 7L76.6051 6.94698L76.5757 6.9H76.5203V7ZM69.2824 12.1513C68.1391 10.9411 68.1391 9.04893 69.2824 7.83869L69.137 7.70135C67.9209 8.98867 67.9209 11.0013 69.137 12.2886L69.2824 12.1513ZM73.5396 12.149C72.3608 13.3205 70.458 13.3205 69.2802 12.1491L69.1392 12.2909C70.395 13.5399 72.4238 13.5398 73.6806 12.2909L73.5396 12.149ZM73.5376 7.8389C74.6855 9.04713 74.6855 10.9429 73.5376 12.1511L73.6826 12.2888C74.9039 11.0034 74.9039 8.98657 73.6826 7.70114L73.5376 7.8389ZM72.5393 7.17467C72.9107 7.32564 73.2509 7.55056 73.5392 7.84053L73.681 7.69951C73.3736 7.39036 73.0107 7.15043 72.6146 6.98939L72.5393 7.17467ZM71.4099 6.954C71.8012 6.954 72.1839 7.03031 72.5393 7.17468L72.6145 6.98938C72.2355 6.83541 71.8273 6.754 71.4099 6.754V6.954ZM69.2807 7.84048C69.8439 7.2732 70.6104 6.954 71.4099 6.954V6.754C70.5571 6.754 69.7396 7.09448 69.1388 7.69956L69.2807 7.84048ZM47.3198 10.2446C47.3527 10.9585 47.0922 11.6547 46.5975 12.1708L46.7419 12.3092C47.2745 11.7535 47.555 11.0039 47.5196 10.2354L47.3198 10.2446ZM47.2813 9.80788C47.3075 9.95016 47.3197 10.0945 47.3197 10.24H47.5197C47.5197 10.0833 47.5065 9.92679 47.478 9.77171L47.2813 9.80788ZM44.4695 9.88979H47.3796V9.6898H44.4695V9.88979ZM44.5695 10.5098V9.78979H44.3695V10.5098H44.5695ZM46.6404 10.4098H44.4695V10.6098H46.6404V10.4098ZM46.5533 11.2916C46.6663 11.0493 46.7311 10.7847 46.7403 10.5132L46.5404 10.5064C46.5321 10.7505 46.4739 10.9888 46.372 11.207L46.5533 11.2916ZM46.2138 11.7978C46.3537 11.6464 46.4679 11.4754 46.5534 11.2914L46.372 11.2072C46.2953 11.3723 46.1927 11.526 46.0669 11.6621L46.2138 11.7978ZM43.5235 12.291C44.4356 12.6855 45.4953 12.4923 46.2099 11.8019L46.0709 11.6581C45.4144 12.2924 44.4408 12.4698 43.6029 12.1074L43.5235 12.291ZM42.0404 9.99832C42.0261 10.9921 42.6115 11.8966 43.5235 12.291L43.6029 12.1074C42.765 11.745 42.2273 10.9141 42.2404 10.0012L42.0404 9.99832ZM42.2116 9.02034C42.0884 9.32937 42.0282 9.66375 42.0405 10.0034L42.2403 9.99616C42.2291 9.68488 42.2842 9.37815 42.3973 9.09441L42.2116 9.02034ZM42.3432 8.74411C42.2931 8.83344 42.2493 8.92577 42.2116 9.02032L42.3973 9.09443C42.4319 9.00782 42.472 8.92339 42.5177 8.84183L42.3432 8.74411ZM42.3797 8.68002L42.3435 8.7435L42.5173 8.84244L42.5535 8.77896L42.3797 8.68002ZM42.4136 8.62468L42.3813 8.67717L42.5518 8.78181L42.584 8.72932L42.4136 8.62468ZM42.5191 8.47189C42.483 8.52055 42.4472 8.5713 42.4142 8.62367L42.5834 8.73034C42.6129 8.68358 42.6455 8.63716 42.6797 8.5911L42.5191 8.47189ZM42.587 8.38495L42.5206 8.46991L42.6782 8.59308L42.7446 8.50812L42.587 8.38495ZM42.6269 8.33678L42.5888 8.38268L42.7427 8.51039L42.7808 8.46449L42.6269 8.33678ZM42.6765 8.28168L42.6296 8.33368L42.7781 8.46759L42.825 8.41559L42.6765 8.28168ZM42.7214 8.23459L42.6785 8.27951L42.823 8.41776L42.866 8.37283L42.7214 8.23459ZM44.47 7.49985C43.8119 7.49654 43.1804 7.76191 42.722 8.23405L42.8655 8.37337C43.286 7.94024 43.8653 7.69682 44.469 7.69985L44.47 7.49985ZM46.1866 8.2454C45.7611 7.7402 45.1234 7.46411 44.4641 7.5L44.4749 7.69971C45.0715 7.66723 45.6486 7.91703 46.0336 8.37423L46.1866 8.2454ZM46.5697 7.70906L46.0394 8.23909L46.1808 8.38054L46.7111 7.85051L46.5697 7.70906ZM45.6626 7.20262C46.0101 7.34267 46.3185 7.56285 46.565 7.84552L46.7157 7.71405C46.4486 7.40785 46.1144 7.16905 45.7373 7.01711L45.6626 7.20262ZM45.5056 7.14085C45.5578 7.15984 45.6099 7.18019 45.6608 7.20187L45.7391 7.01786C45.6846 6.99462 45.6292 6.97297 45.574 6.9529L45.5056 7.14085ZM45.3894 7.10124L45.5075 7.14153L45.5721 6.95222L45.4539 6.91194L45.3894 7.10124ZM45.0984 7.02439C45.1974 7.04513 45.2947 7.0711 45.3913 7.10187L45.452 6.91131C45.3494 6.87861 45.2455 6.85087 45.1394 6.82864L45.0984 7.02439ZM44.7799 6.975C44.8866 6.98562 44.9934 7.00216 45.0982 7.02435L45.1396 6.82868C45.0276 6.80497 44.9137 6.78733 44.7997 6.77598L44.7799 6.975ZM44.4697 6.95986C44.5738 6.95963 44.6768 6.96459 44.7798 6.97498L44.7998 6.77599C44.6899 6.7649 44.58 6.75961 44.4693 6.75986L44.4697 6.95986ZM42.3309 7.82978C42.8927 7.25695 43.6658 6.9419 44.4673 6.95984L44.4717 6.75989C43.6149 6.74071 42.7885 7.07753 42.1881 7.68975L42.3309 7.82978ZM41.6743 11.1407C41.2072 10.0058 41.4662 8.70109 42.3305 7.83021L42.1885 7.68933C41.2677 8.61727 40.9916 10.0074 41.4893 11.2168L41.6743 11.1407ZM44.4703 13.0299C43.243 13.0202 42.1414 12.2758 41.6743 11.1407L41.4893 11.2168C41.987 12.4263 43.1609 13.2196 44.4687 13.2299L44.4703 13.0299ZM45.5584 12.8536C45.2162 12.9818 44.8475 13.0434 44.4731 13.0299L44.4659 13.2298C44.8669 13.2442 45.2619 13.1783 45.6286 13.0409L45.5584 12.8536ZM46.5976 12.1707C46.3034 12.4764 45.9479 12.7079 45.5585 12.8536L45.6285 13.0409C46.0458 12.8849 46.4266 12.6368 46.7417 12.3093L46.5976 12.1707ZM51.9998 7.63999H49.2996V7.83999H51.9998V7.63999ZM51.8998 7V7.73999H52.0998V7H51.8998ZM48.4998 7.1H51.9998V6.9H48.4998V7.1ZM48.5998 13V7H48.3998V13H48.5998ZM51.9998 12.9H48.4998V13.1H51.9998V12.9ZM51.8998 12.26V13H52.0998V12.26H51.8998ZM49.2996 12.36H51.9998V12.16H49.2996V12.36ZM49.1996 10.3601V12.26H49.3996V10.3601H49.1996ZM51.7595 10.2601H49.2996V10.4601H51.7595V10.2601ZM51.6595 9.63989V10.3601H51.8595V9.63989H51.6595ZM49.2996 9.73989H51.7595V9.53989H49.2996V9.73989ZM49.1996 7.73999V9.63989H49.3996V7.73999H49.1996ZM54.5095 13.1H55.28V12.9H54.5095V13.1ZM54.4095 7.73999V13H54.6095V7.73999H54.4095ZM52.8298 7.83999H54.5095V7.63999H52.8298V7.83999ZM52.7298 7V7.73999H52.9298V7H52.7298ZM56.9998 6.9H52.8298V7.1H56.9998V6.9ZM57.0998 7.73999V7H56.8998V7.73999H57.0998ZM55.28 7.83999H56.9998V7.63999H55.28V7.83999ZM55.38 13V7.73999H55.18V13H55.38ZM60.0402 13V7H59.8402V13H60.0402ZM60.7097 12.9H59.9402V13.1H60.7097V12.9ZM60.6097 7V13H60.8097V7H60.6097ZM59.9402 7.1H60.7097V6.9H59.9402V7.1ZM63.3591 13.1H64.1296V12.9H63.3591V13.1ZM63.2591 7.73999V13H63.4591V7.73999H63.2591ZM61.6794 7.83999H63.3591V7.63999H61.6794V7.83999ZM61.5794 7V7.73999H61.7794V7H61.5794ZM65.7996 6.9H61.6794V7.1H65.7996V6.9ZM65.8996 7.73999V7H65.6996V7.73999H65.8996ZM64.1296 7.83999H65.7996V7.63999H64.1296V7.83999ZM64.2296 13V7.73999H64.0296V13H64.2296ZM72.9658 8.347C73.8169 9.2847 73.8169 10.7151 72.9658 11.6528L73.1138 11.7872C74.0342 10.7732 74.0342 9.22653 73.1138 8.21258L72.9658 8.347ZM69.8506 8.35065C70.7129 7.49204 72.1069 7.49204 72.9692 8.35065L73.1104 8.20892C72.17 7.27261 70.6499 7.27261 69.7095 8.20892L69.8506 8.35065ZM69.8541 11.6528C69.0029 10.7151 69.0029 9.2847 69.8541 8.347L69.706 8.21258C68.7856 9.22653 68.7856 10.7732 69.706 11.7872L69.8541 11.6528ZM72.9692 11.6491C72.1069 12.5077 70.7129 12.5077 69.8506 11.6491L69.7095 11.7908C70.6499 12.7271 72.17 12.7271 73.1104 11.7908L72.9692 11.6491ZM75.6798 13V7H75.4798V13H75.6798ZM76.3601 12.9H75.5798V13.1H76.3601V12.9ZM76.2601 8.11011V13H76.4601V8.11011H76.2601ZM79.4948 12.9471L76.445 8.05719L76.2753 8.16303L79.3251 13.0529L79.4948 12.9471ZM80.2097 12.9H79.4099V13.1H80.2097V12.9ZM80.1097 7V13H80.3097V7H80.1097ZM79.4402 7.1H80.2097V6.9H79.4402V7.1ZM79.5402 11.6699V7H79.3402V11.6699H79.5402ZM76.4355 7.05302L79.3554 11.7229L79.525 11.6169L76.6051 6.94698L76.4355 7.05302ZM75.5798 7.1H76.5203V6.9H75.5798V7.1Z" fill="white"/>
<path d="M10.4401 7.53997C10.1142 7.93108 9.9497 8.43177 9.98014 8.93997V31.06C9.9497 31.5682 10.1142 32.0689 10.4401 32.46L10.5101 32.53L22.9001 20.15V19.86L10.5101 7.46997L10.4401 7.53997Z" fill="url(#paint0_linear)"/>
<path d="M26.9994 24.28L22.8994 20.15V19.86L26.9994 15.72L27.0894 15.77L31.9994 18.56C33.3994 19.35 33.3994 20.65 31.9994 21.45L27.1094 24.23L26.9994 24.28Z" fill="url(#paint1_linear)"/>
<path d="M27.1195 24.22L22.8995 20L10.4395 32.46C11.0282 32.9775 11.9019 33.0027 12.5195 32.52L27.1295 24.22" fill="url(#paint2_linear)"/>
<path d="M27.1197 15.7801L12.5097 7.48005C11.8921 6.99733 11.0184 7.02253 10.4297 7.54005L22.8997 20.0001L27.1197 15.7801Z" fill="url(#paint3_linear)"/>
<path opacity="0.2" d="M26.9995 24.1301L12.5095 32.3801C11.9165 32.8235 11.1024 32.8235 10.5095 32.3801L10.4395 32.4501L10.5095 32.5201C11.1013 32.9668 11.9176 32.9668 12.5095 32.5201L27.1195 24.2201L26.9995 24.1301Z" fill="black"/>
<path opacity="0.12" fill-rule="evenodd" clip-rule="evenodd" d="M26.9998 24.1299L31.9998 21.3C32.5164 21.0449 32.8855 20.5649 32.9998 20C32.948 20.6245 32.5671 21.1736 31.9998 21.4399L27.0896 24.22L26.9998 24.1299ZM10.074 31.657C10.1521 31.897 10.2751 32.1223 10.4402 32.3198L10.5095 32.3999L10.4402 32.47C10.1238 32.0911 9.95971 31.6118 9.97827 31.1199C9.9851 31.3032 10.0183 31.4839 10.074 31.657ZM9.97827 31.1199C9.97827 31.104 9.98022 31.0857 9.98022 31.0698V30.9199C9.97631 30.9868 9.97534 31.0535 9.97827 31.1199Z" fill="black"/>
<path opacity="0.25" d="M12.5097 7.61994L31.9997 18.6999C32.5164 18.955 32.8858 19.4351 32.9997 19.9999C32.9482 19.3755 32.5668 18.8263 31.9997 18.5599L12.5097 7.47994C11.1097 6.68994 9.96973 7.34994 9.96973 8.94994V9.09994C9.99973 7.48994 11.1197 6.82994 12.5097 7.61994Z" fill="white"/>
<defs>
<linearGradient id="paint0_linear" x1="17.4734" y1="-7.559" x2="-2.36605" y2="-2.28266" gradientUnits="userSpaceOnUse">
<stop stop-color="#00A0FF"/>
<stop offset="0.01" stop-color="#00A1FF"/>
<stop offset="0.26" stop-color="#00BEFF"/>
<stop offset="0.51" stop-color="#00D2FF"/>
<stop offset="0.76" stop-color="#00DFFF"/>
<stop offset="1" stop-color="#00E3FF"/>
</linearGradient>
<linearGradient id="paint1_linear" x1="33.8294" y1="9.79966" x2="9.63941" y2="9.79966" gradientUnits="userSpaceOnUse">
<stop stop-color="#FFE000"/>
<stop offset="0.41" stop-color="#FFBD00"/>
<stop offset="0.78" stop-color="#FFA500"/>
<stop offset="1" stop-color="#FF9C00"/>
</linearGradient>
<linearGradient id="paint2_linear" x1="10.0733" y1="13.5275" x2="-5.8631" y2="40.3341" gradientUnits="userSpaceOnUse">
<stop stop-color="#FF3A44"/>
<stop offset="1" stop-color="#C31162"/>
</linearGradient>
<linearGradient id="paint3_linear" x1="0.709706" y1="4.09606" x2="7.82299" y2="16.0665" gradientUnits="userSpaceOnUse">
<stop stop-color="#32A071"/>
<stop offset="0.07" stop-color="#2DA771"/>
<stop offset="0.48" stop-color="#15CF74"/>
<stop offset="0.8" stop-color="#06E775"/>
<stop offset="1" stop-color="#00F076"/>
</linearGradient>
</defs>
</svg>
